<svg id="svg" version="1.1" xmlns="http://www.w3.org/2000/svg" xmlns:xlink="http://www.w3.org/1999/xlink" width="400" height="400" viewBox="0, 0, 400,400"><g id="svgg"><path id="path0" d="M157.600 105.200 L 114.804 148.002 157.604 190.802 L 200.404 233.602 243.200 190.800 L 285.996 147.998 243.196 105.198 L 200.396 62.398 157.600 105.200 M231.389 178.611 L 200.782 209.225 169.997 178.413 L 139.213 147.600 169.804 116.999 L 200.395 86.397 231.195 117.197 L 261.995 147.997 231.389 178.611 M67.200 195.600 L 24.404 238.402 67.204 281.202 L 110.004 324.002 152.800 281.200 L 195.596 238.398 152.796 195.598 L 109.996 152.798 67.200 195.600 M248.000 195.600 L 205.204 238.402 248.004 281.202 L 290.804 324.002 333.600 281.200 L 376.396 238.398 333.596 195.598 L 290.796 152.798 248.000 195.600 M140.800 269.200 L 110.005 300.003 79.205 269.203 L 48.405 238.403 79.200 207.600 L 109.995 176.797 140.795 207.597 L 171.595 238.397 140.800 269.200 M321.787 269.013 L 291.180 299.628 260.603 269.013 L 230.026 238.398 260.413 207.790 L 290.800 177.182 321.597 207.790 L 352.395 238.397 321.787 269.013 " stroke="none" fill="#000000" fill-rule="evenodd"></path></g></svg>